<svg width="22" height="14" xmlns="http://www.w3.org/2000/svg"><path d="M18.9 4.156l2.46 2.564v3.426h-9.475C10.85 12.122 8.852 13.4 6.625 13.4c-3.313 0-6-2.798-6-6.25S3.312.9 6.625.9c2.227 0 4.224 1.28 5.26 3.255H18.9zm-.83 2.084h-7.49l-.254-.65c-.606-1.564-2.06-2.607-3.701-2.607-2.209 0-4 1.866-4 4.167 0 2.301 1.791 4.167 4 4.167 1.64 0 3.094-1.043 3.702-2.605l.254-.65h8.78v-.48L18.07 6.24zM5.375 5.719c.76 0 1.375.64 1.375 1.432 0 .792-.615 1.432-1.375 1.432S4 7.943 4 7.151c0-.791.616-1.432 1.375-1.432z" fill="#00B956" fill-rule="evenodd"/></svg>