<svg width="32" height="32" xmlns="http://www.w3.org/2000/svg"><path d="M13 2V0c10.477 0 19 8.523 19 19h-2c0-9.374-7.626-17-17-17zm0 6V6c7.168 0 13 5.832 13 13h-2c0-6.065-4.935-11-11-11zm5.443 24h-.967C8 32 0 24 0 14.525v-.968L3.557 10l6.675 6.83-2.776 2.777c1.239 2.146 2.791 3.544 4.938 4.783l2.776-2.776 6.83 6.83L18.443 32zM13 14v-2c3.859 0 7 3.141 7 7h-2c0-2.757-2.243-5-5-5zm-11 .385l1.557-1.557 3.847 4.002L5 19.235l.33.647c1.535 3.01 3.778 5.099 6.788 6.634l.648.33 2.404-2.404 4.002 4.002L17.615 30h-.139C9.059 30 2 23.012 2 14.525v-.14z" fill="#00B956" fill-rule="evenodd"/></svg>