<svg width="40" height="40" xmlns="http://www.w3.org/2000/svg"><g opacity=".67"><path d="M6.7 19.034l6.07-1.617c1.329-4.277 5.316-7.384 10.03-7.384 5.8 0 10.5 4.701 10.5 10.5 0 5.8-4.7 10.5-10.5 10.5-4.714 0-8.701-3.105-10.03-7.382L6.7 22.034v-3z" fill="none" stroke="#333" stroke-width="2"/><path d="M20 20.533c0 .775-.626 1.4-1.4 1.4a1.399 1.399 0 1 1 1.4-1.4m4.2 0c0 .775-.626 1.4-1.4 1.4a1.399 1.399 0 1 1 1.4-1.4m4.2 0c0 .775-.626 1.4-1.4 1.4a1.399 1.399 0 1 1 1.4-1.4" fill="#333"/><path d="M0 0h40v40H0V0z" fill="none"/></g></svg>