<svg width="42" height="20" xmlns="http://www.w3.org/2000/svg"><path d="M21.5 11c-3.534 0-5.708-3.313-6.373-4.5C15.792 5.313 17.966 2 21.5 2 23.981 2 26 4.019 26 6.5S23.981 11 21.5 11m-15 0A4.505 4.505 0 0 1 2 6.5C2 4.019 4.019 2 6.5 2c3.534 0 5.708 3.313 6.373 4.5C12.208 7.687 10.034 11 6.5 11m15-11c-3.804 0-6.275 2.712-7.5 4.518C12.775 2.712 10.304 0 6.5 0A6.508 6.508 0 0 0 0 6.5C0 10.084 2.916 13 6.5 13c3.804 0 6.275-2.712 7.5-4.518C15.225 10.288 17.696 13 21.5 13c3.584 0 6.5-2.916 6.5-6.5S25.084 0 21.5 0"/></svg>