<svg width="151" height="150" xmlns="http://www.w3.org/2000/svg"><g fill="#00B956"><path d="M126.7 115.9c-5.2 0-9.4-4.2-9.4-9.4s4.2-9.4 9.4-9.4 9.4 4.2 9.4 9.4-4.2 9.4-9.4 9.4m-22 0c-5.2 0-9.4-4.2-9.4-9.4s4.2-9.4 9.4-9.4 9.4 4.2 9.4 9.4-4.2 9.4-9.4 9.4m-22 0c-5.2 0-9.4-4.2-9.4-9.4s4.2-9.4 9.4-9.4 9.4 4.2 9.4 9.4-4.2 9.4-9.4 9.4M84.3.6v77.3c0 3.4-2.8 6.1-6.1 6.1H69c-.5 0-.8.4-.8.8v64.8c2.3.2 4.6.3 6.9.3 41.4 0 75-33.6 75-75C150 36.7 121.3 5.1 84.3.6"/><path d="M60.6 61.8c-5.2 0-9.4-4.2-9.4-9.4s4.2-9.4 9.4-9.4 9.4 4.2 9.4 9.4-4.2 9.4-9.4 9.4zM75 0C33.6 0 0 33.6 0 75c0 36 25.3 66 59.1 73.3V81c.1-3.2 2.7-5.9 5.9-6h9.4c.4 0 .8-.3.8-.8V0H75z"/></g></svg>