<svg width="844" height="150" xmlns="http://www.w3.org/2000/svg"><g fill="#00B956"><path d="M825.1 41.2v28.3h-38V41.2h-18.7V116h18.7V85.8h38V116h18.8V41.2h-18.8zm-340.3 44l11.5-27.1c.4-.8 1-1.1 1.5-1.1s1.2.2 1.5 1.1l11.5 27.1h-26zm28.4-35.6c-3.1-6.8-9.4-10.1-15.4-10.1s-12.3 3.3-15.4 10.1L451.8 116h19.9l6.7-15.8h38.8l6.7 15.8h19.9l-30.6-66.4zM290.3 27.7c-8.8 0-14.4 4.7-18.5 14.1L247.4 98 223 41.8c-4.1-9.4-9.7-14.1-18.5-14.1-8.2 0-16.7 5.9-16.7 18.6V116h18.7V48.3l24.6 55.8c3.3 7.8 8.6 12.7 16.3 12.7 7.7 0 13-4.9 16.3-12.7l24.6-55.8V116H307V46.4c0-12.8-8.5-18.7-16.7-18.7m49.5 72.5c-.9 0-1.6-.7-1.6-1.6V85.3h46.7V70h-46.7V58.6c0-.9.7-1.6 1.6-1.6H386V41.2h-55.4c-6.5 0-11.1 5.4-11.1 11.1v52.4c0 5.7 4.7 11.1 11.1 11.1H386V100h-46.2v.2zm78 15.8V58.7c0-.9.7-1.6 1.6-1.6h46.2V41.3h-55.4c-6.5 0-11.1 5.4-11.1 11.1V116h18.7zm298.3-14.8h-6c-15.6 0-21.7-7-21.7-22.7v-.1c0-15.2 5.3-22.7 21.7-22.7h6c15.9 0 21.7 7.5 21.7 22.7v.1c0 15.7-6.2 22.7-21.7 22.7zM756 78.5c0-26.2-11.3-38.4-39.6-38.4h-6.6c-28.4 0-39.6 12.2-39.6 38.4 0 25.8 11.5 38.2 39.8 38.2h6.2c28.3 0 39.8-12.4 39.8-38.2zm-118.6 0c-2.8 7.4-7.4 12.1-20 12.1h-8.6V45.2h11.5c10.8 0 18.2 6.7 18.2 22.7 0 4.1 0 7.7-1.1 10.6zm-47.3 12.1h-8.6c-12.7 0-17.2-4.7-20-12.1-1.1-2.9-1.1-6.5-1.1-10.6 0-15.9 7.4-22.7 18.2-22.7h11.5v45.4zM618 29.5h-37.1c-27.7 0-38.7 14-38.7 38.4 0 3.8.2 7.3.8 10.6 2.9 17.3 13.1 27.9 39 27.9h8.2v9.6h18.7v-9.6h8.1c25.9 0 36.1-10.6 39-27.9.5-3.3.8-6.8.8-10.6-.1-24.4-11.2-38.4-38.8-38.4zm-491.3 86.4c-5.2 0-9.4-4.2-9.4-9.4s4.2-9.4 9.4-9.4 9.4 4.2 9.4 9.4-4.2 9.4-9.4 9.4m-22 0c-5.2 0-9.4-4.2-9.4-9.4s4.2-9.4 9.4-9.4 9.4 4.2 9.4 9.4-4.2 9.4-9.4 9.4m-22 0c-5.2 0-9.4-4.2-9.4-9.4s4.2-9.4 9.4-9.4 9.4 4.2 9.4 9.4-4.2 9.4-9.4 9.4M84.3.6v77.3c0 3.4-2.8 6.1-6.1 6.1H69c-.5 0-.8.4-.8.8v64.8c2.3.2 4.6.3 6.9.3 41.4 0 75-33.6 75-75C150 36.7 121.3 5.1 84.3.6"/><path d="M60.6 61.8c-5.2 0-9.4-4.2-9.4-9.4s4.2-9.4 9.4-9.4 9.4 4.2 9.4 9.4-4.2 9.4-9.4 9.4zM75 0C33.6 0 0 33.6 0 75c0 36 25.3 66 59.1 73.3V81c.1-3.2 2.7-5.9 5.9-6h9.4c.4 0 .8-.3.8-.8V0H75z"/></g></svg>