<svg width="35" height="35" xmlns="http://www.w3.org/2000/svg"><path d="M0 17.5C0 7.835 7.835 0 17.5 0S35 7.835 35 17.5 27.165 35 17.5 35 0 27.165 0 17.5z" fill="#31AFD8"/><path d="M27.406 14.118c-.093 2.044-1.52 4.843-4.282 8.395-2.856 3.71-5.271 5.566-7.247 5.566-1.224 0-2.26-1.13-3.106-3.39l-1.695-6.214c-.629-2.26-1.302-3.39-2.024-3.39-.157 0-.707.33-1.648.989l-.987-1.272a260.68 260.68 0 0 0 3.064-2.733c1.382-1.194 2.42-1.822 3.112-1.886 1.634-.157 2.64.96 3.017 3.351.408 2.58.691 4.184.85 4.812.471 2.14.99 3.21 1.556 3.21.439 0 1.1-.694 1.98-2.083.879-1.388 1.35-2.445 1.413-3.17.126-1.199-.345-1.8-1.413-1.8-.503 0-1.021.117-1.555.345 1.033-3.38 3.004-5.021 5.915-4.928 2.157.064 3.175 1.463 3.05 4.198" fill="#FFFFFE"/></svg>