<svg width="35" height="35" xmlns="http://www.w3.org/2000/svg"><path d="M0 17.5C0 7.835 7.835 0 17.5 0S35 7.835 35 17.5 27.165 35 17.5 35 0 27.165 0 17.5z" fill="#4C6C91"/><path d="M18.415 22.66s.337-.037.51-.219c.158-.167.152-.481.152-.481s-.02-1.47.674-1.686c.685-.213 1.564 1.42 2.497 2.049.705.475 1.24.37 1.24.37l2.493-.033s1.304-.08.686-1.086c-.051-.082-.36-.744-1.853-2.105-1.564-1.424-1.354-1.194.528-3.657 1.147-1.5 1.605-2.416 1.462-2.808-.136-.374-.98-.275-.98-.275l-2.806.017s-.208-.028-.363.063c-.15.088-.248.296-.248.296s-.444 1.16-1.036 2.148c-1.25 2.082-1.75 2.193-1.954 2.064-.476-.302-.357-1.212-.357-1.858 0-2.02.312-2.86-.607-3.079-.305-.072-.53-.12-1.31-.128-1.002-.01-1.85.004-2.33.234-.319.153-.565.496-.415.515.186.025.606.112.828.41.288.384.278 1.246.278 1.246s.165 2.376-.386 2.671c-.378.203-.897-.21-2.012-2.1a17.43 17.43 0 0 1-1.001-2.038s-.083-.2-.232-.308c-.18-.13-.431-.17-.431-.17l-2.667.017s-.4.01-.548.182c-.13.151-.01.466-.01.466s2.088 4.795 4.453 7.212c2.168 2.216 4.63 2.07 4.63 2.07h1.115z" fill="#FFF"/></svg>