<svg width="36" height="35" xmlns="http://www.w3.org/2000/svg"><path d="M0 17.5C0 7.835 7.938 0 17.73 0c9.793 0 17.731 7.835 17.731 17.5S27.523 35 17.731 35C7.938 35 0 27.165 0 17.5z" fill="#CE1312"/><path d="M26.959 13.977s-.185-1.314-.751-1.893c-.718-.76-1.523-.763-1.892-.808-2.643-.193-6.607-.193-6.607-.193h-.008s-3.964 0-6.607.193c-.37.045-1.174.048-1.893.808-.566.579-.75 1.893-.75 1.893s-.189 1.544-.189 3.088v1.447c0 1.544.19 3.087.19 3.087s.183 1.315.75 1.894c.718.76 1.662.736 2.082.815 1.51.147 6.42.192 6.42.192s3.97-.006 6.612-.2c.369-.044 1.174-.047 1.892-.807.566-.58.75-1.894.75-1.894s.19-1.543.19-3.087v-1.447c0-1.544-.19-3.088-.19-3.088z" fill="#FFF"/><path d="M15.755 20.266v-5.36l5.102 2.69-5.102 2.67z" fill="#CE1312"/></svg>