<svg xmlns="http://www.w3.org/2000/svg" xmlns:xlink="http://www.w3.org/1999/xlink"><defs>
    <path d="M28.2 9C25.7 4.7 21.1 2 16.1 2C8.4 2 2.1 8.3 2.1 16C2.1 23.7 8.4 30 16.1 30C21.1 30 25.7 27.3 28.2 23L29.9 24C27 28.9 21.7 32 16 32C7.2 32 0 24.8 0 16C0 7.2 7.3 0 16.1 0C21.8 0 27.1 3.1 30 8L28.2 9ZM33.1 12L31.1 12L31.1 15L28.1 15L28.1 17L31.1 17L31.1 20L33.1 20L33.1 17L36.1 17L36.1 15L33.1 15L33.1 12ZM14.1 22L14.1 20L15.1 20L15.1 18L14.1 18L14.1 15L12.1 15L12.1 18L8.4 18L10.9 10.3L9 9.7L6.3 18.1L6.1 18.7L7 20L12.1 20L12.1 22L14.1 22ZM24.5 12.8L25.7 11.2C23.4 9.4 19.9 9.7 17.9 11.8C16.7 12.9 16.1 14.4 16.1 16C16.1 17.6 16.7 19.1 17.9 20.3C19 21.4 20.5 22.1 22.1 22.1C23.4 22.1 24.7 21.7 25.7 20.9L26.1 20.6L26.1 15.1L22.1 15.1L22.1 17.1L24.1 17.1L24.1 19.6C22.6 20.5 20.5 20.2 19.3 19C18.5 18.1 18.1 17.1 18.1 16C18.1 14.9 18.5 13.9 19.3 13.2C20.6 11.8 23 11.6 24.5 12.8Z" id="path_1"/>
    <clipPath id="mask_1">
      <use xlink:href="#path_1"/>
    </clipPath>
  
    <path d="M11.3369 8L6.5 3.20605L1.66315 8L0 6.39698L6.5 0L13 6.39698L11.3369 8Z" transform="translate(9.5 12)" id="path_1"/>
    <clipPath id="mask_1">
      <use xlink:href="#path_1"/>
    </clipPath>
  
    <path d="M13 2L13 0C23.477 0 32 8.523 32 19L30 19C30 9.626 22.374 2 13 2ZM13 8L13 6C20.168 6 26 11.832 26 19L24 19C24 12.935 19.065 8 13 8ZM18.443 31.9998L17.476 31.9998C8 31.9998 0 23.9998 0 14.5248L0 13.5568L3.557 9.9998L10.232 16.8298L7.456 19.6068C8.695 21.7528 10.247 23.1508 12.394 24.3898L15.17 21.6138L22 28.4438L18.443 31.9998ZM13 14L13 12C16.859 12 20 15.141 20 19L18 19C18 16.243 15.757 14 13 14ZM2 14.3848L3.557 12.8278L7.404 16.8298L5 19.2348L5.33 19.8818C6.865 22.8918 9.108 24.9808 12.118 26.5158L12.766 26.8458L15.17 24.4418L19.172 28.4438L17.615 29.9998L17.476 29.9998C9.059 29.9998 2 23.0118 2 14.5248L2 14.3848Z" id="path_1"/>
    <clipPath id="mask_1">
      <use xlink:href="#path_1"/>
    </clipPath>
  
    <path d="M5 0L5 8L0 4L5 0Z" transform="matrix(-4.371139E-08 -1 1 -4.371139E-08 6 13)" id="path_1"/>
    <clipPath id="mask_1">
      <use xlink:href="#path_1"/>
    </clipPath>
  
    <path d="M26 32L26 20L28 20L28 10L23.4 10C24.4 8.9 25 7.5 25 6C25 2.7 22.3 0 19 0C16.9 0 15.1 1.1 14 2.7C12.9 1.1 11.1 0 9 0C5.7 0 3 2.7 3 6C3 7.5 3.6 8.9 4.6 10L0 10L0 20L2 20L2 32L26 32ZM4 20L13 20L13 30L4 30L4 20ZM24 30L15 30L15 20L24 20L24 30ZM19 2C21.2 2 23 3.8 23 6C23 8.2 21.2 10 19 10L15 10L15 6C15 3.8 16.8 2 19 2ZM5 6C5 3.8 6.8 2 9 2C11.2 2 13 3.8 13 6L13 10L9 10C6.8 10 5 8.2 5 6ZM2 12L9 12L13 12L15 12L19 12L26 12L26 18L2 18L2 12Z" id="path_1"/>
    <clipPath id="mask_1">
      <use xlink:href="#path_1"/>
    </clipPath>
  </defs><symbol id="4g-icon" viewBox="0 0 37 32">
  
  <g id="Group">
    <g id="Group-47-Copy">
      <g id="Group-26">
        <path d="M28.2 9C25.7 4.7 21.1 2 16.1 2C8.4 2 2.1 8.3 2.1 16C2.1 23.7 8.4 30 16.1 30C21.1 30 25.7 27.3 28.2 23L29.9 24C27 28.9 21.7 32 16 32C7.2 32 0 24.8 0 16C0 7.2 7.3 0 16.1 0C21.8 0 27.1 3.1 30 8L28.2 9ZM33.1 12L31.1 12L31.1 15L28.1 15L28.1 17L31.1 17L31.1 20L33.1 20L33.1 17L36.1 17L36.1 15L33.1 15L33.1 12ZM14.1 22L14.1 20L15.1 20L15.1 18L14.1 18L14.1 15L12.1 15L12.1 18L8.4 18L10.9 10.3L9 9.7L6.3 18.1L6.1 18.7L7 20L12.1 20L12.1 22L14.1 22ZM24.5 12.8L25.7 11.2C23.4 9.4 19.9 9.7 17.9 11.8C16.7 12.9 16.1 14.4 16.1 16C16.1 17.6 16.7 19.1 17.9 20.3C19 21.4 20.5 22.1 22.1 22.1C23.4 22.1 24.7 21.7 25.7 20.9L26.1 20.6L26.1 15.1L22.1 15.1L22.1 17.1L24.1 17.1L24.1 19.6C22.6 20.5 20.5 20.2 19.3 19C18.5 18.1 18.1 17.1 18.1 16C18.1 14.9 18.5 13.9 19.3 13.2C20.6 11.8 23 11.6 24.5 12.8Z" id="Mask" fill="#00B956" stroke="none"/>
      </g>
    </g>
  </g>
</symbol><symbol id="account-icon" viewBox="0 0 22 14">
  <desc>Created with Lunacy</desc>
  <g id="account">
    <path d="M18.2742 3.25521L20.735 5.81853L20.735 9.24479L11.2597 9.24479C10.224 11.2209 8.2271 12.5 6 12.5C2.68647 12.5 0 9.7016 0 6.25C0 2.7984 2.68647 0 6 0C8.2271 0 10.224 1.27909 11.2597 3.25521L18.2742 3.25521ZM17.4458 5.33854L9.95514 5.33854L9.70203 4.68828C9.09376 3.12558 7.64034 2.08333 6 2.08333C3.79103 2.08333 2 3.94899 2 6.25C2 8.55101 3.79103 10.4167 6 10.4167C7.64034 10.4167 9.09376 9.37442 9.70203 7.81172L9.95514 7.16146L18.735 7.16146L18.735 6.68147L17.4458 5.33854ZM4.74963 4.81771C5.50991 4.81771 6.12463 5.45804 6.12463 6.25C6.12463 7.04196 5.50991 7.68229 4.74963 7.68229C3.99018 7.68229 3.37462 7.04153 3.37462 6.25C3.37462 5.45847 3.99018 4.81771 4.74963 4.81771Z" transform="translate(0.625375 0.9010417)" id="Stroke-3" fill="#00B956" fill-rule="evenodd" stroke="none"/>
  </g>
</symbol><symbol id="arrow-list-icon" viewBox="0 0 32 32">
  
  <g id="Group">
    <g id="&#x1F369;-Icon">
      <path d="M11.3369 8L6.5 3.20605L1.66315 8L0 6.39698L6.5 0L13 6.39698L11.3369 8Z" transform="translate(9.5 12)" id="Mask" fill="#333333" stroke="none"/>
      <g clip-path="url(#mask_1)">
        <g id="&#x21B3;Color">
          <path d="M0 0L32 0L32 32L0 32L0 0Z" id="Rectangle" fill="#333333" stroke="none"/>
        </g>
      </g>
    </g>
  </g>
</symbol><symbol id="arrow-right-icon" viewBox="0 0 16 16">
  <g id="Icons/24/Arrow" transform="matrix(-1 0 0 1 16 0)">
    <path d="M4 0L0 4L4 8" transform="translate(6 4)" id="Path-2" fill="none" stroke="#424242" stroke-width="1"/>
  </g>
</symbol><symbol id="call-icon" viewBox="0 0 32 32">
  
  <g id="Group">
    <g id="Group-52-Copy">
      <path d="M13 2L13 0C23.477 0 32 8.523 32 19L30 19C30 9.626 22.374 2 13 2ZM13 8L13 6C20.168 6 26 11.832 26 19L24 19C24 12.935 19.065 8 13 8ZM18.443 31.9998L17.476 31.9998C8 31.9998 0 23.9998 0 14.5248L0 13.5568L3.557 9.9998L10.232 16.8298L7.456 19.6068C8.695 21.7528 10.247 23.1508 12.394 24.3898L15.17 21.6138L22 28.4438L18.443 31.9998ZM13 14L13 12C16.859 12 20 15.141 20 19L18 19C18 16.243 15.757 14 13 14ZM2 14.3848L3.557 12.8278L7.404 16.8298L5 19.2348L5.33 19.8818C6.865 22.8918 9.108 24.9808 12.118 26.5158L12.766 26.8458L15.17 24.4418L19.172 28.4438L17.615 29.9998L17.476 29.9998C9.059 29.9998 2 23.0118 2 14.5248L2 14.3848Z" id="Mask" fill="#00B956" fill-rule="evenodd" stroke="none"/>
    </g>
  </g>
</symbol><symbol id="contacts-icon" viewBox="0 0 32 32"><path d="M26.71 11.65h-1.53A8.43 8.43 0 0 0 16.76 4h-1.52A8.18 8.18 0 0 0 7 11.65H5.29A3.22 3.22 0 0 0 2 14.94V18a3.19 3.19 0 0 0 3.29 3.29H9v-8.64A7.56 7.56 0 0 1 9.19 11 19.33 19.33 0 0 0 19 13.65h4.24L23 21.82c0 1.87-.56 3.84-2.06 4.12A3.5 3.5 0 0 0 17.5 23h-2a3.5 3.5 0 0 0 0 7h2a3.5 3.5 0 0 0 3.15-2c2.64 0 4.35-2.45 4.35-6.15v-.56h1.69A3.19 3.19 0 0 0 30 18v-3.06a3.22 3.22 0 0 0-3.29-3.29zM7 19.29H5.29A1.3 1.3 0 0 1 4 18v-3.06a1.3 1.3 0 0 1 1.29-1.29H7zm12-7.65a17.31 17.31 0 0 1-9.09-2.55A6 6 0 0 1 15.24 6h1.53a6.44 6.44 0 0 1 6.4 5.65zM17.5 28h-2a1.5 1.5 0 0 1 0-3h2a1.5 1.5 0 0 1 0 3zM28 18a1.3 1.3 0 0 1-1.29 1.29h-1.64l.14-5.65h1.5a1.3 1.3 0 0 1 1.29 1.3z"/><circle cx="12.5" cy="16.5" r="1.5"/><circle cx="19.5" cy="16.5" r="1.5"/></symbol><symbol id="footer-map-icon" viewBox="0 0 40 40">
  <g id="Group">
    <g id="Group-3" opacity="0.67">
      <g id="Group-2">
        <g id="Group" transform="translate(8.666504 8.666672)">
          <path d="M10.386 22.4355L0 19.467L0 0.087C0.048 0.051 0.0675 0.036 0.114 0L10.5 2.967L10.5 22.3485C10.452 22.3845 10.4325 22.3995 10.386 22.4355Z" transform="translate(6.083034 0.1581833)" id="Stroke-1" fill="none" stroke="#333333" stroke-width="2"/>
          <path d="M0.1305 22.3275L6 19.392L6 0.135C5.9055 0.0765 5.8785 0.0585 5.784 0L0 2.892L0 22.2465C0.057 22.2825 0.0735 22.293 0.1305 22.3275Z" transform="translate(16.58318 0.2340833)" id="Stroke-3" fill="none" stroke="#333333" stroke-width="2"/>
          <path d="M0.2175 22.3275L6 19.4355L6 0.081C5.943 0.0465 5.928 0.036 5.871 0L0 2.9355L0 22.1925C0.096 22.251 0.123 22.269 0.2175 22.3275Z" transform="translate(0.08258333 0.1901333)" id="Stroke-5" fill="none" stroke="#333333" stroke-width="2"/>
        </g>
        <g id="Group">
          <path d="M0 0L40 0L40 40L0 40L0 0Z" id="Rectangle-6" fill="none" stroke="none"/>
        </g>
      </g>
    </g>
  </g>
</symbol><symbol id="footer-office-icon" viewBox="0 0 40 40">
  <g id="Group">
    <g id="Group-2" opacity="0.67">
      <g id="Group">
        <path d="M15.4005 11.25C15.4005 11.25 16.071 9.9105 16.071 8.0355C16.071 3.597 12.474 0 8.0355 0C3.597 0 0 3.597 0 8.0355C0 10.071 0.6705 11.25 0.6705 11.25L6.429 22.5L9.642 22.5L15.4005 11.25Z" transform="translate(12.08378 8.75)" id="Stroke-1" fill="none" stroke="#333333" stroke-width="2"/>
        <path d="M6 3C6 4.656 4.656 6 3 6C1.344 6 0 4.656 0 3C0 1.344 1.344 0 3 0C4.656 0 6 1.344 6 3Z" transform="translate(17.11898 14)" id="Stroke-3" fill="none" stroke="#333333" stroke-width="2"/>
        <path d="M0 0L40 0L40 40L0 40L0 0Z" id="Rectangle-6" fill="none" stroke="none"/>
      </g>
    </g>
  </g>
</symbol><symbol id="footer-question-icon" viewBox="0 0 40 40">
  <g id="Group">
    <g id="Group-2" opacity="0.67">
      <g id="Group" transform="translate(6 9.333333)">
        <path d="M0 9.0006L6.0704 7.3836C7.399 3.1066 11.3862 0 16.1 0C21.9002 0 26.6 4.7012 26.6 10.5C26.6 16.3002 21.9002 21 16.1 21C11.3862 21 7.399 17.8948 6.0704 13.6178L0 12.0008L0 9.0006Z" transform="translate(0.7 0.69958)" id="Stroke-1" fill="none" stroke="#333333" stroke-width="2"/>
        <path d="M2.8 1.4C2.8 2.1742 2.1742 2.8 1.4 2.8C0.6258 2.8 0 2.1742 0 1.4C0 0.6258 0.6258 0 1.4 0C2.1742 0 2.8 0.6258 2.8 1.4" transform="translate(11.2 9.8)" id="Fill-3" fill="#333333" stroke="none"/>
        <path d="M2.8 1.4C2.8 2.1742 2.1742 2.8 1.4 2.8C0.6258 2.8 0 2.1742 0 1.4C0 0.6258 0.6258 0 1.4 0C2.1742 0 2.8 0.6258 2.8 1.4" transform="translate(15.4 9.8)" id="Fill-5" fill="#333333" stroke="none"/>
        <path d="M2.8 1.4C2.8 2.1742 2.1742 2.8 1.4 2.8C0.6258 2.8 0 2.1742 0 1.4C0 0.6258 0.6258 0 1.4 0C2.1742 0 2.8 0.6258 2.8 1.4" transform="translate(19.6 9.8)" id="Fill-7" fill="#333333" stroke="none"/>
      </g>
      <path d="M0 0L40 0L40 40L0 40L0 0Z" id="Rectangle-6" fill="none" stroke="none"/>
    </g>
  </g>
</symbol><symbol id="footer-vip-icon" viewBox="0 0 40 40">
  <g id="Group">
    <g id="Group-2" opacity="0.67">
      <g id="Group">
        <path d="M0 0L0 4.0485C0 8.6055 3.6945 12.2985 8.25 12.2985C12.8055 12.2985 16.5 8.6055 16.5 4.0485L16.5 0" transform="translate(11.41667 19.1006)" id="Stroke-1" fill="none" stroke="#333333" stroke-width="2"/>
        <path d="M0 3L0 10.5L16.5 10.5L16.5 3L14.25 3L12.75 6L11.25 6L9.1065 0L7.2855 0L5.25 6L3.75 6L2.25 3L0 3Z" transform="translate(11.41667 8.75)" id="Stroke-3" fill="none" stroke="#333333" stroke-width="2"/>
        <path d="M0 0L40 0L40 40L0 40L0 0Z" id="Rectangle-6" fill="none" stroke="none"/>
      </g>
    </g>
  </g>
</symbol><symbol id="hamburger-icon" viewBox="0 0 24 21">
  <desc>Created with Lunacy</desc>
  <g id="hamburger">
    <path d="M0 0L24 0L24 3L0 3L0 0Z" id="Rectangle-3" fill="#00B956" stroke="none"/>
    <path d="M0 0L24 0L24 3L0 3L0 0Z" transform="translate(0 9)" id="Rectangle-3" fill="#00B956" stroke="none"/>
    <path d="M0 0L24 0L24 3L0 3L0 0Z" transform="translate(0 18)" id="Rectangle-3" fill="#00B956" stroke="none"/>
  </g>
</symbol><symbol id="header__arrow-icon" viewBox="0 0 20 20">
  
  <g id="Source/System-Icons/16/Arrow-list_down_16">
    <path d="M5 0L5 8L0 4L5 0Z" transform="matrix(-4.371139E-08 -1 1 -4.371139E-08 6 13)" id="Mask" fill="none" stroke="none"/>
    <g clip-path="url(#mask_1)">
          <path d="M0 0L20 0L20 20L0 20L0 0Z" id="Rectangle" fill="red" stroke="none"/>
    </g>
  </g>
</symbol><symbol id="infinity-icon" viewBox="0 0 42 20">
  <g id="Group">
    <path d="M21.5 11C17.966 11 15.792 7.687 15.127 6.5C15.792 5.313 17.966 2 21.5 2C23.981 2 26 4.019 26 6.5C26 8.981 23.981 11 21.5 11M6.5 11C4.019 11 2 8.981 2 6.5C2 4.019 4.019 2 6.5 2C10.034 2 12.208 5.313 12.873 6.5C12.208 7.687 10.034 11 6.5 11M21.5 0C17.696 0 15.225 2.712 14 4.518C12.775 2.712 10.304 0 6.5 0C2.916 0 0 2.916 0 6.5C0 10.084 2.916 13 6.5 13C10.304 13 12.775 10.288 14 8.482C15.225 10.288 17.696 13 21.5 13C25.084 13 28 10.084 28 6.5C28 2.916 25.084 0 21.5 0" id="Page-1-Copy-10" fill="#000000" stroke="none"/>
  </g>
</symbol><symbol id="insta-icon" viewBox="0 0 21 21"><path d="M14.5 2H6.6C4.1 2 2 4 2 6.5v7.9C2 17 4.1 19 6.6 19h7.9c2.5 0 4.5-2 4.5-4.5v-8C19 4 17 2 14.5 2zm-4.1 12.8c-2.5 0-4.3-1.9-4.4-4.3 0-2.4 2-4.3 4.3-4.4 2.5 0 4.3 1.9 4.4 4.3 0 2.6-1.8 4.4-4.3 4.4zm5-8.2c-.5 0-1-.5-1-1s.5-1 1-1 1 .4 1 1c0 .5-.5 1-1 1z"/><path d="M10.4 7.8c-1.6 0-2.8 1.3-2.8 2.8 0 1.6 1.3 2.7 2.8 2.7 1.6 0 2.8-1.3 2.8-2.8.1-1.5-1.2-2.7-2.8-2.7z"/></symbol><symbol id="logo-icon" viewBox="0 0 844 150">
  <desc>Created with Lunacy</desc>
  <g id="logo">
    <g id="Group">
      <path d="M56.7 0L56.7 28.3L18.7 28.3L18.7 0L0 0L0 74.8L18.7 74.8L18.7 44.6L56.7 44.6L56.7 74.8L75.5 74.8L75.5 0L56.7 0Z" transform="translate(768.4 41.2)" id="Shape" fill="#00B956" stroke="none"/>
      <path d="M33 45.7L44.5 18.6C44.9 17.8 45.5 17.5 46 17.5L46 17.5L46 17.5C46.5 17.5 47.2 17.7 47.5 18.6L59 45.7L33 45.7ZM61.4 10.1C58.3 3.3 52 0 46 0L46 0L46 0L46 0C40 0 33.7 3.3 30.6 10.1L0 76.5L19.9 76.5L26.6 60.7L65.4 60.7L72.1 76.5L92 76.5L61.4 10.1Z" transform="translate(451.8 39.5)" id="Shape" fill="#00B956" stroke="none"/>
      <path d="M102.5 0C93.7 0 88.1 4.7 84 14.1L59.6 70.3L35.2 14.1C31.1 4.7 25.5 1.42109e-14 16.7 1.42109e-14C8.5 1.42109e-14 0 5.9 0 18.6L0 88.3L18.7 88.3L18.7 20.6L43.3 76.4C46.6 84.2 51.9 89.1 59.6 89.1L59.6 89.1L59.6 89.1C67.3 89.1 72.6 84.2 75.9 76.4L100.5 20.6L100.5 88.3L119.2 88.3L119.2 18.7C119.2 5.9 110.7 0 102.5 0" transform="translate(187.8 27.7)" id="Shape" fill="#00B956" stroke="none"/>
      <path d="M20.3 59C19.4 59 18.7 58.3 18.7 57.4L18.7 44.1L65.4 44.1L65.4 28.8L18.7 28.8L18.7 17.4C18.7 16.5 19.4 15.8 20.3 15.8L66.5 15.8L66.5 0L11.1 0C4.6 0 0 5.4 0 11.1L0 63.5C0 69.2 4.7 74.6 11.1 74.6L66.5 74.6L66.5 58.8L20.3 58.8L20.3 59Z" transform="translate(319.5 41.2)" id="Shape" fill="#00B956" stroke="none"/>
      <path d="M18.7 74.7L18.7 17.4C18.7 16.5 19.4 15.8 20.3 15.8L66.5 15.8L66.5 0L11.1 0C4.6 0 0 5.4 0 11.1L0 74.7L18.7 74.7Z" transform="translate(399.1 41.3)" id="Shape" fill="#00B956" stroke="none"/>
      <path d="M45.9 61.1L39.9 61.1C24.3 61.1 18.2 54.1 18.2 38.4L18.2 38.3C18.2 23.1 23.5 15.6 39.9 15.6L45.9 15.6C61.8 15.6 67.6 23.1 67.6 38.3L67.6 38.4C67.6 54.1 61.4 61.1 45.9 61.1L45.9 61.1ZM85.8 38.4C85.8 12.2 74.5 0 46.2 0L39.6 0C11.2 0 0 12.2 0 38.4L0 38.4C0 64.2 11.5 76.6 39.8 76.6L46 76.6C74.3 76.6 85.8 64.2 85.8 38.4L85.8 38.4Z" transform="translate(670.2 40.1)" id="Shape" fill="#00B956" stroke="none"/>
      <path d="M95.2 49C92.4 56.4 87.8 61.1 75.2 61.1L66.6 61.1L66.6 15.7L78.1 15.7C88.9 15.7 96.3 22.4 96.3 38.4C96.3 42.5 96.3 46.1 95.2 49L95.2 49ZM47.9 61.1L39.3 61.1C26.6 61.1 22.1 56.4 19.3 49C18.2 46.1 18.2 42.5 18.2 38.4C18.2 22.5 25.6 15.7 36.4 15.7L47.9 15.7L47.9 61.1ZM75.8 0L38.7 0C11 0 0 14 0 38.4C0 42.2 0.2 45.7 0.8 49C3.7 66.3 13.9 76.9 39.8 76.9L48 76.9L48 86.5L66.7 86.5L66.7 76.9L74.8 76.9C100.7 76.9 110.9 66.3 113.8 49C114.3 45.7 114.6 42.2 114.6 38.4C114.5 14 103.4 0 75.8 0L75.8 0Z" transform="translate(542.2 29.5)" id="Shape" fill="#00B956" stroke="none"/>
      <path d="M58.5 115.3C53.3 115.3 49.1 111.1 49.1 105.9C49.1 100.7 53.3 96.5 58.5 96.5C63.7 96.5 67.9 100.7 67.9 105.9C67.9 111.1 63.7 115.3 58.5 115.3M36.5 115.3C31.3 115.3 27.1 111.1 27.1 105.9C27.1 100.7 31.3 96.5 36.5 96.5C41.7 96.5 45.9 100.7 45.9 105.9C45.9 111.1 41.7 115.3 36.5 115.3M14.5 115.3C9.3 115.3 5.1 111.1 5.1 105.9C5.1 100.7 9.3 96.5 14.5 96.5C19.7 96.5 23.9 100.7 23.9 105.9C23.9 111.1 19.7 115.3 14.5 115.3M16.1 0L16.1 77.3L16.1 77.3L16.1 77.3C16.1 80.7 13.3 83.4 10 83.4L0.8 83.4C0.3 83.4 0 83.8 0 84.2L0 149C2.3 149.2 4.6 149.3 6.9 149.3C48.3 149.3 81.9 115.7 81.9 74.3C81.8 36.1 53.1 4.5 16.1 0" transform="translate(68.2 0.6)" id="Shape" fill="#00B956" stroke="none"/>
      <path d="M60.6 61.8C55.4 61.8 51.2 57.6 51.2 52.4C51.2 47.2 55.4 43 60.6 43C65.8 43 70 47.2 70 52.4C70 57.6 65.8 61.8 60.6 61.8L60.6 61.8ZM75 1.42109e-14C33.6 1.42109e-14 0 33.6 0 75C0 111 25.3 141 59.1 148.3L59.1 81L59.1 81C59.2 77.8 61.8 75.1 65 75L65 75L68.1 75L74.4 75C74.8 75 75.2 74.7 75.2 74.2L75.2 0L75 1.42109e-14Z" id="Shape" fill="#00B956" stroke="none"/>
    </g>
  </g>
</symbol><symbol id="logo-mobile-icon" viewBox="0 0 151 150">
  <g id="Group">
    <g id="logo">
      <path d="M58.5 115.3C53.3 115.3 49.1 111.1 49.1 105.9C49.1 100.7 53.3 96.5 58.5 96.5C63.7 96.5 67.9 100.7 67.9 105.9C67.9 111.1 63.7 115.3 58.5 115.3M36.5 115.3C31.3 115.3 27.1 111.1 27.1 105.9C27.1 100.7 31.3 96.5 36.5 96.5C41.7 96.5 45.9 100.7 45.9 105.9C45.9 111.1 41.7 115.3 36.5 115.3M14.5 115.3C9.3 115.3 5.1 111.1 5.1 105.9C5.1 100.7 9.3 96.5 14.5 96.5C19.7 96.5 23.9 100.7 23.9 105.9C23.9 111.1 19.7 115.3 14.5 115.3M16.1 0L16.1 77.3L16.1 77.3L16.1 77.3C16.1 80.7 13.3 83.4 10 83.4L0.8 83.4C0.3 83.4 0 83.8 0 84.2L0 149C2.3 149.2 4.6 149.3 6.9 149.3C48.3 149.3 81.9 115.7 81.9 74.3C81.8 36.1 53.1 4.5 16.1 0" transform="translate(68.2 0.6)" id="Shape" fill="#00B956" stroke="none"/>
      <path d="M60.6 61.8C55.4 61.8 51.2 57.6 51.2 52.4C51.2 47.2 55.4 43 60.6 43C65.8 43 70 47.2 70 52.4C70 57.6 65.8 61.8 60.6 61.8L60.6 61.8ZM75 1.42109e-14C33.6 1.42109e-14 0 33.6 0 75C0 111 25.3 141 59.1 148.3L59.1 81L59.1 81C59.2 77.8 61.8 75.1 65 75L65 75L68.1 75L74.4 75C74.8 75 75.2 74.7 75.2 74.2L75.2 0L75 1.42109e-14Z" id="Shape" fill="#00B956" stroke="none"/>
    </g>
  </g>
</symbol><symbol id="present-icon" viewBox="0 0 28 32">
  
  <g id="Group">
    <g id="Group-53-Copy-2">
      <path d="M26 32L26 20L28 20L28 10L23.4 10C24.4 8.9 25 7.5 25 6C25 2.7 22.3 0 19 0C16.9 0 15.1 1.1 14 2.7C12.9 1.1 11.1 0 9 0C5.7 0 3 2.7 3 6C3 7.5 3.6 8.9 4.6 10L0 10L0 20L2 20L2 32L26 32ZM4 20L13 20L13 30L4 30L4 20ZM24 30L15 30L15 20L24 20L24 30ZM19 2C21.2 2 23 3.8 23 6C23 8.2 21.2 10 19 10L15 10L15 6C15 3.8 16.8 2 19 2ZM5 6C5 3.8 6.8 2 9 2C11.2 2 13 3.8 13 6L13 10L9 10C6.8 10 5 8.2 5 6ZM2 12L9 12L13 12L15 12L19 12L26 12L26 18L2 18L2 12Z" id="Mask" fill="#00B956" stroke="none"/>
    </g>
  </g>
</symbol><symbol id="search-icon" viewBox="0 0 19 22">
  <desc>Created with Lunacy</desc>
  <g id="search">
    <path d="M16.25 9.125C16.25 5.18979 13.0602 2 9.125 2C5.18979 2 2 5.18979 2 9.125C2 13.0602 5.18979 16.25 9.125 16.25C13.0602 16.25 16.25 13.0602 16.25 9.125ZM18.25 9.125C18.25 14.1648 14.1648 18.25 9.125 18.25C4.08522 18.25 0 14.1648 0 9.125C0 4.08522 4.08522 0 9.125 0C14.1648 0 18.25 4.08522 18.25 9.125Z" transform="translate(0.625 0.624875)" id="Stroke-1" fill="#00B956" stroke="none"/>
    <path d="M4.876 4.0575L1.546 0L0 1.26881L3.33 5.32631L4.876 4.0575Z" transform="translate(13.75737 15.68297)" id="Stroke-3" fill="#00B956" stroke="none"/>
  </g>
</symbol><symbol id="shield-icon" viewBox="0 0 40 40"><path d="M8.45 7.5L8 7.79v8.83a24.16 24.16 0 0 0 9.39 19.19l.27.21h4.69l.27-.21A24.16 24.16 0 0 0 32 16.63V7.79l-.45-.3a21 21 0 0 0-23.1 0zM10 16.63V8.88a18.89 18.89 0 0 1 9-2.82V34h-.65A22.16 22.16 0 0 1 10 16.63zm20 0A22.16 22.16 0 0 1 21.65 34H21V6a18.89 18.89 0 0 1 9 2.82z"/></symbol><symbol id="social-fb-icon" viewBox="0 0 38 38">
  <g id="Group">
    <g id="Group-3">
      <path d="M19 38C29.4934 38 38 29.4934 38 19C38 8.50659 29.4934 0 19 0C8.50659 0 0 8.50659 0 19C0 29.4934 8.50659 38 19 38Z" id="Oval-4-Copy-3" fill="#DBDDDF" stroke="none"/>
      <path d="M2.3566 3.64202L2.3566 5.66197L0 5.66197L0 8.44705L2.3566 8.44705L2.3566 15.5781L5.2335 15.5781L5.2335 8.44705L7.5901 8.44705L7.92676 5.66197L5.2335 5.66197L5.2335 3.91747C5.2335 3.44819 5.32531 3.09623 5.50894 2.86159C5.69258 2.62695 6.05984 2.50963 6.61073 2.50963L8.11039 2.50963L8.11039 0.0918157C8.08999 0.0918157 7.82474 0.0765133 7.31465 0.0459079C6.80456 0.0153025 6.34549 0 5.93742 0C4.85603 0 3.98889 0.31115 3.33597 0.93346C2.68306 1.55577 2.3566 2.45862 2.3566 3.64202Z" transform="translate(14.82566 11.42193)" id="&#xE064;" fill="#535353" stroke="none"/>
    </g>
  </g>
</symbol><symbol id="social-h-icon" viewBox="0 0 38 38">
  <g id="Group">
    <g id="Group-5">
      <path d="M19 38C29.4934 38 38 29.4934 38 19C38 8.50659 29.4934 0 19 0C8.50659 0 0 8.50659 0 19C0 29.4934 8.50659 38 19 38Z" id="Oval-4-Copy-5" fill="#DBDDDF" stroke="none"/>
      <path d="M7.81964 0L7.81964 4.90066L3.90982 4.90066L3.90982 0L0 0L0 13.7112L3.90982 13.7112L3.90982 8.81048L7.81964 8.81048L7.81964 13.7112L11.7295 13.7112L11.7295 0L7.81964 0Z" transform="translate(12.99084 12.28885)" id="&#xE065;" fill="#535353" stroke="none"/>
    </g>
  </g>
</symbol><symbol id="social-no-icon" viewBox="0 0 38 38">
  <g id="Group">
    <path d="M19 38C29.4934 38 38 29.4934 38 19C38 8.50659 29.4934 0 19 0C8.50659 0 0 8.50659 0 19C0 29.4934 8.50659 38 19 38Z" id="Oval-4" fill="#DBDDDF" stroke="none"/>
  </g>
</symbol><symbol id="social-tele-icon" viewBox="0 0 38 38">
  <g id="Group">
    <g id="Group-6">
      <path d="M19 38C29.4934 38 38 29.4934 38 19C38 8.50659 29.4934 0 19 0C8.50659 0 0 8.50659 0 19C0 29.4934 8.50659 38 19 38Z" id="Oval-4-Copy-6" fill="#DBDDDF" stroke="none"/>
      <path d="M6.7702 14.1828C7.18402 14.1828 7.36686 13.9936 7.59783 13.769L9.80485 11.623L7.05187 9.96286M7.0516 9.96328L13.7223 14.8917C14.4835 15.3117 15.0329 15.0942 15.2225 14.185L17.9379 1.38935C18.2159 0.27478 17.513 -0.230737 16.7848 0.0998741L0.840438 6.24794C-0.247913 6.68447 -0.241567 7.29167 0.642054 7.56222L4.73373 8.8393L14.2064 2.8631C14.6536 2.59193 15.064 2.73772 14.7271 3.03669" transform="translate(10 11)" id="Combined-Shape" fill="#535353" stroke="none"/>
    </g>
  </g>
</symbol><symbol id="social-vk-icon" viewBox="0 0 38 38">
  <g id="Group">
    <g id="Group-7">
      <path d="M19 38C29.4934 38 38 29.4934 38 19C38 8.50659 29.4934 0 19 0C8.50659 0 0 8.50659 0 19C0 29.4934 8.50659 38 19 38Z" id="Oval-4-Copy-2" fill="#DBDDDF" stroke="none"/>
      <path d="M9.88275 10.0379C9.88275 10.0379 10.2076 10.0024 10.374 9.82701C10.5263 9.66627 10.521 9.36295 10.521 9.36295C10.521 9.36295 10.5008 7.94656 11.1707 7.73743C11.831 7.53175 12.6788 9.10715 13.5786 9.71294C14.2582 10.171 14.7741 10.0707 14.7741 10.0707L17.1785 10.0379C17.1785 10.0379 18.4356 9.96182 17.8396 8.99135C17.7903 8.91184 17.4919 8.27322 16.0525 6.96139C14.5444 5.58821 14.7469 5.81031 16.5622 3.43468C17.668 1.98804 18.1099 1.10485 17.9717 0.727208C17.8405 0.365981 17.027 0.461905 17.027 0.461905L14.3207 0.478325C14.3207 0.478325 14.12 0.451535 13.9712 0.538817C13.826 0.624371 13.7318 0.823996 13.7318 0.823996C13.7318 0.823996 13.3039 1.94311 12.7325 2.89543C11.5273 4.90378 11.0457 5.01008 10.8485 4.88564C10.3898 4.59441 10.5043 3.71727 10.5043 3.09419C10.5043 1.1472 10.8054 0.335735 9.91884 0.12574C9.6248 0.0557413 9.40822 0.00993981 8.6555 0.0021622C7.68972 -0.00734376 6.87273 0.00561892 6.40965 0.227713C6.10151 0.375487 5.86381 0.705604 6.00907 0.724616C6.18779 0.747948 6.59276 0.831774 6.80758 1.11868C7.0849 1.48941 7.07521 2.32075 7.07521 2.32075C7.07521 2.32075 7.23456 4.61256 6.70281 4.89687C6.33833 5.09217 5.83828 4.69379 4.76333 2.87124C4.2131 1.93792 3.79756 0.906093 3.79756 0.906093C3.79756 0.906093 3.71744 0.713381 3.57394 0.60968C3.4005 0.484374 3.1584 0.445486 3.1584 0.445486L0.586807 0.461905C0.586807 0.461905 0.20032 0.472275 0.0585791 0.637334C-0.0673154 0.78338 0.0488949 1.08671 0.0488949 1.08671C0.0488949 1.08671 2.06233 5.71093 4.34251 8.04162C6.43342 10.1779 8.80692 10.0379 8.80692 10.0379L9.88275 10.0379Z" transform="translate(10 14)" id="Shape" fill="#535353" stroke="none"/>
    </g>
  </g>
</symbol><symbol id="sound-icon" viewBox="0 0 32 30">

    <path d="M16.62 0C8.336 0 1.62 6.716 1.62 15C1.62 17.16 2.085 19.208 2.907 21.064L0 27.076L2.352 29.88L9.104 27.968C11.316 29.252 13.878 30 16.62 30C24.904 30 31.62 23.284 31.62 15C31.62 6.716 24.904 0 16.62 0Z" id="Stroke-1" fill="none" stroke="#00B956" stroke-width="2"/>
    <path d="M0 8L0 0" transform="translate(8.619995 11)" id="Stroke-3" fill="none" stroke="#00B956" stroke-width="2"/>
    <path d="Mnan 0Cnan 0 nan 12 nan 12" transform="translate(16.62 9)" id="Stroke-5" fill="none" stroke="#00B956" stroke-width="2"/>
    <path d="M0 0L0 4" transform="translate(12.62 13)" id="Stroke-7" fill="none" stroke="#00B956" stroke-width="2"/>
    <path d="M0 2.00001L0 0" transform="translate(20.62 14)" id="Stroke-9" fill="none" stroke="#00B956" stroke-width="2"/>
    <path d="M0 8L0 0" transform="translate(24.62 11)" id="Stroke-11" fill="none" stroke="#00B956" stroke-width="2"/>
</symbol><symbol id="twitter-icon" viewBox="0 0 21 21"><path d="M19 5.3c-.6.3-1.3.5-2 .5.6-.5 1.3-1.1 1.5-2-.4.3-1 .6-1.5.8-.8.3-1.1-.4-1.8-.6-.4-.3-.8-.3-1.3-.3-2.5-.3-4.3 2-3.8 4.4C7.3 8 4.7 6.6 2.8 4.3c-.7 1.8-.5 3.8 1.1 4.9-.6 0-1.1-.2-1.5-.4.1 1.6 1.1 3.1 2.9 3.5-.5.3-1.1.1-1.5.1C4.3 14 5.7 15 7.2 15c-1.1 1.3-3.8 1.8-5.3 1.5.5.6 2 1 2.8 1.3 1.3.3 2.6.5 3.9.2 2.5-.3 4.9-1.4 6.5-3.4.9-1.1 1.5-2.3 2-3.6.3-.6.4-1.1.5-1.9.1-.6 0-1.4.3-2-.4-.1 1.4-1.5 1.1-1.8z"/></symbol><symbol id="vimeo-icon" viewBox="0 0 35 35">
  <g id="Group">
    <g id="Vimeo-Copy-3">
      <path d="M0 17.5C0 7.83502 7.83502 0 17.5 0C27.165 0 35 7.83502 35 17.5C35 27.165 27.165 35 17.5 35C7.83502 35 0 27.165 0 17.5Z" id="back" fill="#31AFD8" stroke="none"/>
      <path d="M20.9898 4.20146C20.8963 6.24557 19.4688 9.04401 16.7069 12.5968C13.8518 16.3065 11.4359 18.1622 9.46061 18.1622C8.23599 18.1622 7.20026 17.033 6.35389 14.7729C5.78893 12.7012 5.22444 10.6297 4.65923 8.55799C4.03057 6.29909 3.35687 5.16842 2.63571 5.16842C2.47855 5.16842 1.92883 5.49898 0.987544 6.15718L0 4.88485C1.03646 3.97456 2.05863 3.06402 3.06434 2.15227C4.44661 0.958405 5.48501 0.32999 6.17663 0.266786C7.81027 0.109621 8.81622 1.22648 9.19375 3.61736C9.60179 6.19738 9.8844 7.80171 10.0428 8.42964C10.5145 10.5701 11.033 11.6393 11.5989 11.6393C12.038 11.6393 12.6986 10.9452 13.5791 9.55619C14.4579 8.16811 14.9292 7.11179 14.9926 6.38578C15.1183 5.1878 14.647 4.58723 13.5791 4.58723C13.0764 4.58723 12.5579 4.70298 12.0246 4.93159C13.057 1.55171 15.0287 -0.0899215 17.939 0.00379585C20.0967 0.0670006 21.1145 1.46622 20.9898 4.20146" transform="translate(6.416667 9.916667)" id="Fill-4" fill="#FFFFFE" stroke="none"/>
    </g>
  </g>
</symbol><symbol id="vk-icon" viewBox="0 0 35 35">
  <g id="Group">
    <g id="VK-Copy-2">
      <path d="M0 17.5C0 7.83502 7.83502 0 17.5 0C27.165 0 35 7.83502 35 17.5C35 27.165 27.165 35 17.5 35C7.83502 35 0 27.165 0 17.5Z" id="back" fill="#4C6C91" stroke="none"/>
      <path d="M10.2488 10.4096C10.2488 10.4096 10.5857 10.3729 10.7582 10.191C10.9162 10.0243 10.9107 9.70972 10.9107 9.70972C10.9107 9.70972 10.8897 8.24087 11.5845 8.024C12.2692 7.8107 13.1484 9.44445 14.0815 10.0727C14.7863 10.5477 15.3213 10.4437 15.3213 10.4437L17.8147 10.4096C17.8147 10.4096 19.1184 10.3308 18.5004 9.32436C18.4492 9.24191 18.1397 8.57963 16.647 7.21922C15.083 5.79518 15.293 6.0255 17.1756 3.56189C18.3223 2.06168 18.7806 1.14577 18.6373 0.754142C18.5013 0.379536 17.6577 0.479013 17.6577 0.479013L14.8511 0.49604C14.8511 0.49604 14.643 0.468259 14.4887 0.558773C14.338 0.647496 14.2404 0.854514 14.2404 0.854514C14.2404 0.854514 13.7966 2.01507 13.2041 3.00267C11.9542 5.0854 11.4548 5.19564 11.2503 5.06659C10.7747 4.76457 10.8933 3.85494 10.8933 3.20879C10.8933 1.18969 11.2056 0.34817 10.2862 0.130397C9.98127 0.0578058 9.75667 0.010308 8.97607 0.00224229C7.97452 -0.00761575 7.12727 0.00582703 6.64704 0.236147C6.32749 0.389394 6.08099 0.731737 6.23163 0.751453C6.41697 0.77565 6.83694 0.86258 7.05971 1.16011C7.3473 1.54458 7.33726 2.40671 7.33726 2.40671C7.33726 2.40671 7.50251 4.78339 6.95106 5.07824C6.57309 5.28077 6.05451 4.86763 4.93975 2.97758C4.36914 2.0097 3.93821 0.939652 3.93821 0.939652C3.93821 0.939652 3.85512 0.739803 3.70631 0.632261C3.52645 0.502314 3.27538 0.461985 3.27538 0.461985L0.608541 0.479013C0.608541 0.479013 0.20774 0.489767 0.0607487 0.660938C-0.0698085 0.812394 0.0507058 1.12695 0.0507058 1.12695C0.0507058 1.12695 2.13871 5.92244 4.50334 8.33945C6.67169 10.5548 9.1331 10.4096 9.1331 10.4096L10.2488 10.4096Z" transform="translate(8.166667 12.25)" id="Shape" fill="#FFFFFF" stroke="none"/>
    </g>
  </g>
</symbol><symbol id="youtube-icon" viewBox="0 0 36 35">
  <g id="Group">
    <g id="Youtube-Copy-3-copy">
      <g id="Group">
        <path d="M0 17.5C0 7.83502 7.93822 0 17.7305 0C27.5228 0 35.461 7.83502 35.461 17.5C35.461 27.165 27.5228 35 17.7305 35C7.93822 35 0 27.165 0 17.5Z" id="back" fill="#CE1312" stroke="none"/>
      </g>
      <path d="M18.6964 2.89412C18.6964 2.89412 18.5117 1.57969 17.9457 1.00087C17.2275 0.240829 16.4225 0.237252 16.0536 0.19314C13.4109 0 9.44675 0 9.44675 0L9.43849 0C9.43849 0 5.47436 0 2.83161 0.19314C2.46216 0.237252 1.65777 0.240829 0.938951 1.00087C0.372984 1.57969 0.188852 2.89412 0.188852 2.89412C0.188852 2.89412 0 4.43805 0 5.98138L0 7.42873C0 8.97266 0.188852 10.516 0.188852 10.516C0.188852 10.516 0.372984 11.8304 0.938951 12.4092C1.65777 13.1693 2.60144 13.1454 3.02164 13.2247C4.53246 13.3714 9.44262 13.4167 9.44262 13.4167C9.44262 13.4167 13.4109 13.4107 16.0536 13.2176C16.4225 13.1729 17.2275 13.1693 17.9457 12.4092C18.5117 11.8304 18.6964 10.516 18.6964 10.516C18.6964 10.516 18.8852 8.97266 18.8852 7.42873L18.8852 5.98138C18.8852 4.43805 18.6964 2.89412 18.6964 2.89412L18.6964 2.89412Z" transform="translate(8.262329 11.08333)" id="Youtube" fill="#FFFFFF" stroke="none"/>
      <path d="M0.000590164 5.35963L0 0L5.10256 2.68906L0.000590164 5.35963Z" transform="translate(15.75439 14.90619)" id="Path" fill="#CE1312" stroke="none"/>
    </g>
  </g>
</symbol></svg>